<?xml version="1.0" encoding="UTF-8" standalone="no"?>
<!-- Created with Inkscape (http://www.inkscape.org/) -->

<svg
   xmlns:dc="http://purl.org/dc/elements/1.1/"
   xmlns:cc="http://creativecommons.org/ns#"
   xmlns:rdf="http://www.w3.org/1999/02/22-rdf-syntax-ns#"
   xmlns:svg="http://www.w3.org/2000/svg"
   xmlns="http://www.w3.org/2000/svg"
   xmlns:xlink="http://www.w3.org/1999/xlink"
   xmlns:sodipodi="http://sodipodi.sourceforge.net/DTD/sodipodi-0.dtd"
   xmlns:inkscape="http://www.inkscape.org/namespaces/inkscape"
   width="200"
   height="200"
   id="svg2"
   version="1.1"
   inkscape:version="0.92.3 (unknown)"
   sodipodi:docname="whatsapp.svg">
  <defs
     id="defs4">
    <linearGradient
       id="linearGradient4829">
      <stop
         style="stop-color:#f4fbfc;stop-opacity:1;"
         offset="0"
         id="stop4831" />
      <stop
         style="stop-color:#d6d6d6;stop-opacity:1;"
         offset="1"
         id="stop4833" />
    </linearGradient>
    <clipPath
       clipPathUnits="userSpaceOnUse"
       id="clipPath4282">
      <rect
         style="color:#000000;fill:#4d4d4d;fill-opacity:1;fill-rule:nonzero;stroke:none;stroke-width:9.13434315;marker:none;visibility:visible;display:inline;overflow:visible;enable-background:accumulate"
         id="rect4284"
         width="246.875"
         height="234.375"
         x="462.5"
         y="1646.1122"
         ry="17"
         rx="17" />
    </clipPath>
    <linearGradient
       inkscape:collect="always"
       xlink:href="#linearGradient5423"
       id="linearGradient5429"
       x1="408.66196"
       y1="44.604382"
       x2="408.66196"
       y2="562.04968"
       gradientUnits="userSpaceOnUse" />
    <linearGradient
       id="linearGradient5423">
      <stop
         style="stop-color:#15c4fc;stop-opacity:1;"
         offset="0"
         id="stop5425" />
      <stop
         style="stop-color:#1863ee;stop-opacity:1;"
         offset="1"
         id="stop5427" />
    </linearGradient>
    <clipPath
       clipPathUnits="userSpaceOnUse"
       id="clipPath6245">
      <rect
         style="opacity:0.85;color:#000000;fill:#ffffff;fill-opacity:1;fill-rule:nonzero;stroke:none;stroke-width:1.5;marker:none;visibility:visible;display:inline;overflow:visible;enable-background:accumulate"
         id="rect6247"
         width="300"
         height="259.375"
         x="-901.5625"
         y="792.98718"
         rx="16.46875"
         ry="16.46875" />
    </clipPath>
    <linearGradient
       inkscape:collect="always"
       xlink:href="#linearGradient4829"
       id="linearGradient6261"
       x1="105.47797"
       y1="852.77802"
       x2="105.47797"
       y2="1052.7781"
       gradientUnits="userSpaceOnUse"
       gradientTransform="translate(-2.5989256,-0.41583663)" />
  </defs>
  <sodipodi:namedview
     id="base"
     pagecolor="#ffffff"
     bordercolor="#666666"
     borderopacity="1.0"
     inkscape:pageopacity="0.0"
     inkscape:pageshadow="2"
     inkscape:zoom="2.5600001"
     inkscape:cx="122.63942"
     inkscape:cy="103.89286"
     inkscape:document-units="px"
     inkscape:current-layer="layer1"
     showgrid="false"
     inkscape:window-width="1874"
     inkscape:window-height="1059"
     inkscape:window-x="46"
     inkscape:window-y="21"
     inkscape:window-maximized="1"
     inkscape:snap-from-guide="true"
     showguides="true"
     inkscape:guide-bbox="true">
    <sodipodi:guide
       position="0,0"
       orientation="0,200"
       id="guide3764"
       inkscape:locked="false" />
    <sodipodi:guide
       position="200,0"
       orientation="-200,0"
       id="guide3766"
       inkscape:locked="false" />
    <sodipodi:guide
       position="200,200"
       orientation="0,-200"
       id="guide3768"
       inkscape:locked="false" />
    <sodipodi:guide
       position="0,200"
       orientation="200,0"
       id="guide3770"
       inkscape:locked="false" />
  </sodipodi:namedview>
  <metadata
     id="metadata7">
    <rdf:RDF>
      <cc:Work
         rdf:about="">
        <dc:format>image/svg+xml</dc:format>
        <dc:type
           rdf:resource="http://purl.org/dc/dcmitype/StillImage" />
        <dc:title />
      </cc:Work>
    </rdf:RDF>
  </metadata>
  <g
     inkscape:label="Layer 1"
     inkscape:groupmode="layer"
     id="layer1"
     transform="translate(0,-852.36218)">
    <g
       id="g3754"
       transform="matrix(5.1771117,0,0,5.1351351,-0.1771117,852.22705)">
      <path
         id="path3740"
         d="m 10.7,32.8 0.6,0.3 c 2.5,1.5 5.3,2.2 8.1,2.2 v 0 c 8.8,0 16,-7.2 16,-16 0,-4.2 -1.7,-8.3 -4.7,-11.3 -3,-3 -7,-4.7 -11.3,-4.7 -8.8,0 -16,7.2 -15.9,16.1 0,3 0.9,5.9 2.4,8.4 l 0.4,0.6 -1.6,5.9 z"
         class="logo_green"
         inkscape:connector-curvature="0"
         style="fill:#00e676" />
      <path
         id="path3742"
         d="M 32.4,6.4 C 29,2.9 24.3,1 19.5,1 9.3,1 1.1,9.3 1.2,19.4 c 0,3.2 0.9,6.3 2.4,9.1 L 1,38 10.7,35.5 c 2.7,1.5 5.7,2.2 8.7,2.2 v 0 c 10.1,0 18.3,-8.3 18.3,-18.4 0,-4.9 -1.9,-9.5 -5.3,-12.9 z M 19.5,34.6 v 0 c -2.7,0 -5.4,-0.7 -7.7,-2.1 L 11.2,32.2 5.4,33.7 6.9,28 6.5,27.4 C 2.1,20.3 4.2,10.9 11.4,6.5 c 7.2,-4.4 16.5,-2.3 20.9,4.9 4.4,7.2 2.3,16.5 -4.9,20.9 -2.3,1.5 -5.1,2.3 -7.9,2.3 z M 28.3,23.5 27.2,23 c 0,0 -1.6,-0.7 -2.6,-1.2 -0.1,0 -0.2,-0.1 -0.3,-0.1 -0.3,0 -0.5,0.1 -0.7,0.2 v 0 c 0,0 -0.1,0.1 -1.5,1.7 -0.1,0.2 -0.3,0.3 -0.5,0.3 h -0.1 c -0.1,0 -0.3,-0.1 -0.4,-0.2 l -0.5,-0.2 v 0 C 19.5,23 18.5,22.4 17.7,21.6 17.5,21.4 17.2,21.2 17,21 16.3,20.3 15.6,19.5 15.1,18.6 L 15,18.4 c -0.1,-0.1 -0.1,-0.2 -0.2,-0.4 0,-0.2 0,-0.4 0.1,-0.5 0,0 0.4,-0.5 0.7,-0.8 0.2,-0.2 0.3,-0.5 0.5,-0.7 0.2,-0.3 0.3,-0.7 0.2,-1 C 16.2,14.5 15,11.8 14.7,11.2 14.5,10.9 14.3,10.8 14,10.7 h -0.3 c -0.2,0 -0.5,0 -0.8,0 -0.2,0 -0.4,0.1 -0.6,0.1 l -0.1,0.1 c -0.2,0.1 -0.4,0.3 -0.6,0.4 -0.2,0.2 -0.3,0.4 -0.5,0.6 -0.7,0.9 -1.1,2 -1.1,3.1 v 0 c 0,0.8 0.2,1.6 0.5,2.3 l 0.1,0.3 c 0.9,1.9 2.1,3.6 3.7,5.1 l 0.4,0.4 c 0.3,0.3 0.6,0.5 0.8,0.8 2.1,1.8 4.5,3.1 7.2,3.8 0.3,0.1 0.7,0.1 1,0.2 v 0 c 0.3,0 0.7,0 1,0 0.5,0 1.1,-0.2 1.5,-0.4 0.3,-0.2 0.5,-0.2 0.7,-0.4 l 0.2,-0.2 c 0.2,-0.2 0.4,-0.3 0.6,-0.5 0.2,-0.2 0.4,-0.4 0.5,-0.6 0.2,-0.4 0.3,-0.9 0.4,-1.4 0,-0.2 0,-0.5 0,-0.7 0,0 -0.1,-0.1 -0.3,-0.2 z"
         class="logo_white"
         inkscape:connector-curvature="0"
         style="fill:#ffffff" />
    </g>
  </g>
  <style
     id="style3738"
     type="text/css">
                            .logo_white{fill:#FFFFFF;}
                            .logo_green{fill:#00E676;}
                        </style>
</svg>
